<svg width="148" height="16" viewBox="0 0 148 16" fill="none" xmlns="http://www.w3.org/2000/svg">
<path d="M12.2559 15.8166V5.57082L7.84225 12.2788H7.75197L3.38447 5.63109V15.8166H0V0.112427H3.7195L7.84225 6.75411L11.965 0.112427H15.6845V15.8166H12.2559Z" fill="#A4A4A4"/>
<path d="M24.0781 15.8166V0.112427H27.5288V15.8166H24.0781Z" fill="#A4A4A4"/>
<path d="M46.0543 15.8166L41.1933 9.13073L39.3877 11.0172V15.8166H35.937V0.112427H39.3877V6.9771L45.7514 0.112427H49.9062L43.5205 6.77621L50.1971 15.8166H46.0543Z" fill="#A4A4A4"/>
<path d="M70.827 15.8166V2.18167L64.6218 11.2221H64.5316L58.3324 2.18167V15.8226H57.2109V0.112427H58.3083L64.6058 9.40195L70.9013 0.112427H71.9987V15.8166H70.827Z" fill="#A4A4A4"/>
<path d="M81.1265 15.8166V0.112427H92.283V1.18924H82.2921V7.35881H91.2759V8.43563H82.2921V14.7398H92.3953V15.8166H81.1265Z" fill="#A4A4A4"/>
<path d="M105.833 15.8166H100.617V0.112427H105.833C110.761 0.112427 114.167 3.49956 114.167 7.91932V7.96553C114.167 12.3853 110.761 15.8166 105.833 15.8166ZM112.957 7.96553C112.957 4.24088 110.203 1.18924 105.833 1.18924H101.777V14.7398H105.833C110.203 14.7398 112.957 11.7565 112.957 8.00972V7.96553Z" fill="#A4A4A4"/>
<path d="M122.764 15.8166V0.112427H123.935V15.8166H122.764Z" fill="#A4A4A4"/>
<path d="M146.33 15.8167L144.336 11.4231H135.084L133.089 15.8207H131.886L139.182 0H140.302L147.608 15.8167H146.33ZM139.722 1.27972L135.571 10.3663H143.841L139.722 1.27972Z" fill="#A4A4A4"/>
</svg>
