<svg width="184" height="17" viewBox="0 0 184 17" fill="none" xmlns="http://www.w3.org/2000/svg">
<path d="M5.52404 15.686L0 0.232666H5.71858L9.81837 13.9082L13.3562 0.232666H22.0313L25.5475 13.9082L29.6304 0.232666H35.349L29.8466 15.686H21.2555L17.6745 1.46107L14.1343 15.686H5.52404Z" fill="#A4A4A4"/>
<path d="M38.1924 15.686V0.232666H43.7789V15.686H38.1924Z" fill="#A4A4A4"/>
<path d="M48.6572 15.686V0.232666H57.9136L63.7667 13.9394V0.232666H69.0962V15.686H59.811L53.9627 2.04167V15.686H48.6572Z" fill="#A4A4A4"/>
<path d="M73.9668 15.686V0.232666H90.2555V3.75231H79.4236V6.33867H89.3933V9.33528H79.4236V12.1736H90.4717V15.686H73.9668Z" fill="#A4A4A4"/>
<path d="M104.541 10.6549C104.777 9.77269 104.885 8.8614 104.863 7.9486C104.875 7.46012 104.829 6.97195 104.724 6.49468C104.657 6.18009 104.513 5.88722 104.303 5.64296C104.115 5.44051 103.871 5.29785 103.602 5.2327C103.28 5.15603 102.95 5.11976 102.62 5.12473V4.82483H106.979V5.12473C106.703 5.17031 106.429 5.23199 106.16 5.30947C105.948 5.36963 105.763 5.49782 105.632 5.67415C105.473 5.90711 105.37 6.17287 105.329 6.45149C105.249 6.92758 105.202 7.40853 105.187 7.89102C105.173 8.17893 105.149 8.51961 105.113 8.91548C105.077 9.31135 105.019 9.71922 104.94 10.1439C104.861 10.5675 104.752 10.9851 104.616 11.3939C104.488 11.7853 104.31 12.1586 104.087 12.5047L105.079 14.2489C105.167 14.3885 105.268 14.5187 105.382 14.6376C105.459 14.719 105.554 14.7826 105.658 14.8241C105.763 14.8655 105.875 14.8837 105.987 14.8775C106.084 14.8818 106.18 14.8647 106.269 14.8274C106.359 14.79 106.439 14.7334 106.503 14.6616C106.635 14.5153 106.741 14.3473 106.816 14.165C106.892 13.9941 106.943 13.813 106.967 13.6275C106.989 13.4548 107.001 13.3396 107.001 13.2821C107.001 13.2171 106.997 13.1522 106.989 13.0877C106.98 13.0207 106.963 12.9553 106.936 12.8934H107.238C107.258 12.9388 107.272 12.9863 107.282 13.0349C107.296 13.1019 107.304 13.1703 107.303 13.2389C107.303 13.2964 107.289 13.4788 107.26 13.7667C107.219 14.0969 107.113 14.4157 106.948 14.7048C106.741 15.0647 106.452 15.3712 106.105 15.5997C105.622 15.8914 105.062 16.0303 104.498 15.998C103.981 16.029 103.468 15.8972 103.03 15.6213C102.685 15.3705 102.38 15.0688 102.125 14.7264C101.909 14.8991 101.695 15.0599 101.489 15.2062C101.264 15.3659 101.023 15.4996 100.768 15.6045C100.472 15.7287 100.165 15.8228 99.8506 15.8852C99.455 15.9616 99.0526 15.9978 98.6497 15.9932C97.5561 15.9932 96.6715 15.8172 95.9958 15.4653C95.3809 15.1619 94.8399 14.7279 94.4106 14.1937C94.0492 13.7388 93.7851 13.2145 93.6348 12.6535C93.5106 12.2101 93.4412 11.7533 93.4283 11.2931C93.4179 10.6773 93.5546 10.0678 93.827 9.51529C94.0927 8.99308 94.4351 8.51353 94.8429 8.09255C95.2536 7.66885 95.7049 7.28635 96.1903 6.95053C96.6706 6.61464 97.151 6.30035 97.6145 6.01244C97.384 5.41104 97.211 4.92639 97.0958 4.55851C96.9816 4.19924 96.9233 3.82461 96.9228 3.44768C96.9227 3.00637 97.0151 2.56992 97.1942 2.1665C97.3701 1.76195 97.6138 1.39034 97.9148 1.06766C98.2103 0.748527 98.5609 0.485206 98.9499 0.290319C99.317 0.101529 99.7235 0.00205276 100.136 8.89577e-06C100.4 -0.00068281 100.663 0.0389681 100.915 0.117575C101.155 0.195603 101.375 0.324952 101.561 0.496648C101.759 0.685717 101.91 0.918159 102.003 1.17563C102.118 1.50368 102.173 1.85005 102.163 2.19769C102.152 2.67559 102.03 3.14442 101.808 3.56764C101.571 4.04749 101.064 4.54652 100.288 5.06475L103.914 12.1496C104.193 11.6838 104.405 11.1804 104.541 10.6549ZM97.9172 6.64343C97.8307 6.45149 97.7659 6.31714 97.7226 6.24516C97.42 6.48509 97.1582 6.68422 96.9348 6.87136C96.7239 7.04443 96.5359 7.24355 96.3752 7.46396C96.2234 7.6728 96.1096 7.90669 96.039 8.15494C95.9617 8.44599 95.9253 8.74637 95.9309 9.04744C95.9432 9.39348 95.9939 9.73708 96.0822 10.0719C96.1923 10.5333 96.3327 10.9869 96.5025 11.4299C96.6882 11.9174 96.9048 12.3926 97.151 12.8526C97.3869 13.303 97.6609 13.7324 97.97 14.1362C98.2434 14.4934 98.567 14.8094 98.9307 15.0743C99.2236 15.3026 99.5824 15.4305 99.9539 15.4389C100.321 15.445 100.682 15.3522 101.001 15.1702C101.352 14.9616 101.688 14.7274 102.005 14.4697C101.885 14.3067 101.774 14.1378 101.671 13.9634C101.592 13.8267 101.515 13.6803 101.443 13.522L98.2054 7.25043C98.0973 7.0369 98.0036 6.84016 97.9172 6.64343ZM101.801 1.5475C101.747 1.32668 101.66 1.11546 101.541 0.921313C101.43 0.739655 101.279 0.585472 101.099 0.47026C100.901 0.350505 100.673 0.290515 100.441 0.297516C100.398 0.297516 100.302 0.297515 100.148 0.319108C99.9787 0.33796 99.8149 0.392758 99.668 0.479851C99.4848 0.591383 99.3328 0.747368 99.2261 0.933306C99.0821 1.20101 99.0148 1.50319 99.0316 1.80662C99.0352 2.04316 99.0674 2.27839 99.1276 2.50719C99.1967 2.77099 99.2834 3.02988 99.387 3.28214C99.4959 3.54765 99.6184 3.81396 99.7545 4.08107C99.8914 4.34498 100.023 4.58491 100.153 4.80083C100.297 4.70247 100.47 4.58011 100.672 4.43616C100.884 4.28352 101.076 4.10544 101.244 3.90593C101.429 3.69002 101.582 3.44737 101.695 3.18617C101.825 2.88315 101.888 2.55591 101.88 2.22648C101.881 1.99779 101.855 1.76981 101.801 1.5475Z" fill="#A4A4A4"/>
<path d="M111.489 15.686V0.232666H127.713V4.07141H117.119V6.93847H126.419V10.2542H117.119V15.686H111.489Z" fill="#A4A4A4"/>
<path d="M131.294 15.686V0.232666H136.883V15.686H131.294Z" fill="#A4A4A4"/>
<path d="M141.761 15.686V0.232666H151.018L156.863 13.9394V0.232666H162.193V15.686H152.915L147.069 2.04167V15.686H141.761Z" fill="#A4A4A4"/>
<path d="M167.071 15.686V0.232666H183.36V3.75231H172.528V6.33867H182.497V9.33528H172.528V12.1736H183.576V15.686H167.071Z" fill="#A4A4A4"/>
</svg>
