<svg width="111" height="32" viewBox="0 0 111 32" fill="none" xmlns="http://www.w3.org/2000/svg">
<path d="M15.8159 31.4397L15.3821 31.4324C6.90155 31.2744 0 24.2263 0 15.7198C0 7.21339 6.90155 0.165259 15.3835 0.00724862L15.8173 0L15.8159 31.4397ZM14.9671 0.871232C7.14302 1.24669 0.84733 7.81788 0.84733 15.7198C0.84733 23.6218 7.14302 30.193 14.9671 30.5685V0.871232Z" fill="#A4A4A4"/>
<path d="M22.7246 31.4397L22.2908 31.4324C13.8102 31.2744 6.90869 24.2263 6.90869 15.7198C6.90869 7.21339 13.8102 0.165259 22.2937 0.00724862L22.7274 0L22.7246 31.4397ZM21.8772 0.871232C14.0517 1.24669 7.75602 7.81788 7.75602 15.7198C7.75602 23.6218 14.0517 30.193 21.8772 30.5685V0.871232Z" fill="#A4A4A4"/>
<path d="M33.6924 19.8905C33.3094 20.3676 32.8201 20.7479 32.2638 21.0009C31.6346 21.2872 30.9477 21.4231 30.2572 21.398C29.5666 21.3728 28.8914 21.1873 28.2845 20.856C27.6485 20.5001 27.1261 19.9709 26.7779 19.3295C26.4163 18.6587 26.2331 17.9059 26.2457 17.1435C26.2332 16.3803 26.4075 15.6258 26.7533 14.9458C27.0458 14.3907 27.4677 13.9147 27.9832 13.5583C28.4987 13.2019 29.0925 12.9756 29.714 12.8987C30.3355 12.8218 30.9663 12.8967 31.5528 13.1168C32.1392 13.3369 32.6639 13.6958 33.0822 14.163C33.4334 14.5608 33.6751 15.0434 33.7835 15.5634L32.6441 15.8301C32.4875 15.2907 32.1621 14.816 31.7158 14.4761C31.2775 14.1317 30.7356 13.9467 30.1787 13.9514C29.6824 13.9477 29.1963 14.092 28.782 14.366C28.3556 14.6478 28.0134 15.04 27.7915 15.501C27.5444 16.0125 27.421 16.5752 27.4314 17.1435C27.4204 17.7139 27.5574 18.2773 27.8291 18.7787C28.0835 19.2423 28.455 19.6307 28.9063 19.905C29.3686 20.1839 29.8995 20.3275 30.439 20.3196C30.8893 20.3245 31.3346 20.2253 31.7404 20.0297C32.1298 19.8407 32.4711 19.565 32.7381 19.2237C33.0052 18.8871 33.1828 18.4881 33.2543 18.064L34.4111 18.2988C34.316 18.8837 34.068 19.4329 33.6924 19.8905Z" fill="#A4A4A4"/>
<path d="M43.9933 19.3339C43.6467 19.9692 43.1305 20.4952 42.5026 20.8531C41.8405 21.2242 41.0921 21.4128 40.3336 21.3996C39.5725 21.4121 38.8215 21.2237 38.156 20.8531C37.5245 20.497 37.0051 19.9707 36.6566 19.3339C36.3032 18.6552 36.1187 17.901 36.1187 17.1355C36.1187 16.37 36.3032 15.6158 36.6566 14.9371C37.0051 14.3012 37.524 13.7755 38.1546 13.4194C38.8197 13.0478 39.5709 12.8587 40.3322 12.8714C41.0908 12.858 41.8394 13.0471 42.5011 13.4194C43.1284 13.7774 43.6445 14.3028 43.9919 14.9371C44.3462 15.6155 44.5313 16.3698 44.5313 17.1355C44.5313 17.9012 44.3462 18.6555 43.9919 19.3339H43.9933ZM37.6948 18.7642C37.9437 19.2355 38.3162 19.63 38.772 19.905C39.2449 20.1767 39.7806 20.3197 40.3257 20.3197C40.8708 20.3197 41.4064 20.1767 41.8794 19.905C42.3344 19.6317 42.7044 19.2366 42.9479 18.7642C43.199 18.2584 43.3297 17.7012 43.3297 17.1362C43.3297 16.5713 43.199 16.014 42.9479 15.5083C42.7054 15.037 42.335 14.644 41.8794 14.3747C41.4049 14.1076 40.8698 13.9673 40.3257 13.9673C39.7815 13.9673 39.2465 14.1076 38.772 14.3747C38.3155 14.6457 37.9427 15.0381 37.6948 15.5083C37.4391 16.0127 37.3059 16.5704 37.3059 17.1362C37.3059 17.702 37.4391 18.2598 37.6948 18.7642Z" fill="#A4A4A4"/>
<path d="M56.8391 19.2714C56.3224 19.9612 55.6518 20.52 54.8809 20.9031C54.11 21.2863 53.2604 21.4831 52.4 21.4778C51.3519 21.4922 50.3183 21.2308 49.4025 20.7196C48.5234 20.2316 47.8008 19.5031 47.3189 18.6191C46.8139 17.6848 46.5533 16.6375 46.5612 15.5749C46.5545 14.5181 46.7978 13.4748 47.2712 12.5306C47.7102 11.6608 48.3834 10.9317 49.2145 10.4258C50.0624 9.91557 51.0353 9.65251 52.024 9.66615C52.7613 9.66338 53.4897 9.82688 54.1554 10.1445C54.8236 10.4592 55.4157 10.9158 55.8905 11.4825C56.3702 12.0477 56.7241 12.709 56.9287 13.4222L55.6953 13.7034C55.5565 13.154 55.2949 12.6434 54.9304 12.2103C54.5729 11.7838 54.1294 11.4379 53.629 11.1955C53.1343 10.9515 52.5899 10.8255 52.0385 10.8273C51.2752 10.8161 50.5256 11.0315 49.884 11.4463C49.2452 11.8628 48.7326 12.4469 48.4019 13.1351C48.0364 13.8995 47.8495 14.7374 47.8553 15.585C47.853 16.4308 48.0596 17.2641 48.4569 18.0102C48.8311 18.7129 49.3895 19.2999 50.072 19.7078C50.7758 20.1249 51.581 20.3386 52.3985 20.3253C53.0739 20.3308 53.7396 20.1642 54.3332 19.8411C54.9191 19.524 55.4258 19.0779 55.8153 18.5365C56.2081 18.0007 56.457 17.3727 56.5383 16.7128L57.7876 17.0259C57.6623 17.8418 57.3363 18.6135 56.8391 19.2714Z" fill="#A4A4A4"/>
<path d="M60.5308 21.0836V10.0519H65.4629C66.1488 10.0435 66.8284 10.1834 67.4554 10.4621C68.0119 10.7042 68.494 11.0905 68.8522 11.5812C69.1818 12.0582 69.3583 12.6246 69.3583 13.2048C69.3583 13.785 69.1818 14.3514 68.8522 14.8284C68.5054 15.314 68.0258 15.6885 67.4714 15.9069C67.8726 15.9522 68.2397 16.155 68.4922 16.4709C68.7644 16.8118 68.9059 17.2391 68.8913 17.6755V21.0836H67.5899V17.8016C67.5961 17.6206 67.5661 17.4402 67.5018 17.2709C67.4375 17.1016 67.3401 16.9469 67.2154 16.8159C67.0954 16.6884 66.9499 16.5876 66.7885 16.5202C66.627 16.4528 66.4533 16.4202 66.2784 16.4245H61.8263V21.0836H60.5308ZM61.8321 15.2633H65.447C65.9109 15.2708 66.3712 15.1799 66.7975 14.9966C67.1679 14.8416 67.4911 14.5916 67.7345 14.2718C67.954 13.9706 68.0716 13.6069 68.0701 13.2338C68.0685 12.8608 67.9479 12.4981 67.7258 12.1988C67.4819 11.88 67.1595 11.6303 66.7903 11.474C66.3666 11.2902 65.9086 11.1993 65.447 11.2072H61.8321V15.2633Z" fill="#A4A4A4"/>
<path d="M72.0649 21.0835V10.0518H79.5738V11.2115H73.3302V14.8269H78.9491V15.9532H73.3302V19.9238H79.7299V21.0835H72.0649Z" fill="#A4A4A4"/>
<path d="M81.4604 21.0835L85.3472 10.0663H87.6896L91.5445 21.0835H90.1709L89.2498 18.4394H83.7942L82.85 21.0835H81.4604ZM84.1615 17.2971H88.8551L86.5141 10.5374L84.1615 17.2971Z" fill="#A4A4A4"/>
<path d="M95.4939 21.0835V11.2129H91.8096V10.0532H100.472V11.2129H96.8082V21.0835H95.4939Z" fill="#A4A4A4"/>
<path d="M102.737 21.0835V10.0518H110.244V11.2115H104.001V14.8269H109.62V15.9532H104.001V19.9238H110.4V21.0835H102.737Z" fill="#A4A4A4"/>
</svg>
