<svg width="120" height="23" viewBox="0 0 120 23" fill="none" xmlns="http://www.w3.org/2000/svg">
<path d="M0 0H20.6048V2.00845H5.56002V9.52394H18.4462V11.5324H5.56002V22.6761H0V0Z" fill="#A4A4A4"/>
<path d="M32.3472 23C30.2977 23 28.5206 22.6653 27.0162 21.9958C25.5117 21.3263 24.3561 20.3761 23.5493 19.1451C22.7426 17.8925 22.3392 16.4239 22.3392 14.7394C22.3392 13.0549 22.7426 11.5972 23.5493 10.3662C24.3561 9.11362 25.5117 8.15258 27.0162 7.4831C28.5206 6.81362 30.2977 6.47887 32.3472 6.47887C34.3968 6.47887 36.1738 6.81362 37.6783 7.4831C39.1828 8.15258 40.3384 9.11362 41.1451 10.3662C41.9519 11.5972 42.3553 13.0549 42.3553 14.7394C42.3553 16.4239 41.9519 17.8925 41.1451 19.1451C40.3384 20.3761 39.1828 21.3263 37.6783 21.9958C36.1738 22.6653 34.3968 23 32.3472 23ZM32.3472 21.3155C33.9389 21.3155 35.1927 20.7324 36.1084 19.5662C37.0242 18.3784 37.4821 16.7695 37.4821 14.7394C37.4821 12.7094 37.0242 11.1113 36.1084 9.94507C35.1927 8.75728 33.9389 8.16338 32.3472 8.16338C30.7555 8.16338 29.5018 8.75728 28.586 9.94507C27.6703 11.1113 27.2124 12.7094 27.2124 14.7394C27.2124 16.7695 27.6703 18.3784 28.586 19.5662C29.5018 20.7324 30.7555 21.3155 32.3472 21.3155Z" fill="#A4A4A4"/>
<path d="M44.1216 6.80282H49.0929L55.0781 18.2056L61.0306 6.80282H63.9415L55.765 23H52.7887L44.1216 6.80282Z" fill="#A4A4A4"/>
<path d="M74.8617 21.3155C76.3444 21.3155 77.4782 20.9916 78.2631 20.3437C79.0698 19.6958 79.5931 18.7239 79.833 17.4282H83.4306C83.06 19.2207 82.057 20.6028 80.4217 21.5746C78.8082 22.5249 76.7695 23 74.3057 23C72.3433 23 70.6426 22.6761 69.2035 22.0282C67.7645 21.3587 66.6525 20.4085 65.8675 19.1775C65.1044 17.9465 64.7228 16.4887 64.7228 14.8042C64.7228 13.0981 65.1044 11.6188 65.8675 10.3662C66.6525 9.11362 67.7645 8.15258 69.2035 7.4831C70.6426 6.81362 72.3433 6.47887 74.3057 6.47887C77.3364 6.47887 79.6477 7.19155 81.2393 8.6169C82.831 10.0423 83.6269 12.1155 83.6269 14.8366H69.5633V15.031C69.5633 19.2207 71.3294 21.3155 74.8617 21.3155ZM74.4692 8.16338C73.1174 8.16338 72.0381 8.59531 71.2313 9.45916C70.4246 10.323 69.9122 11.554 69.6941 13.1521H78.9499C78.7755 11.5108 78.3067 10.269 77.5436 9.42676C76.7804 8.58451 75.7556 8.16338 74.4692 8.16338Z" fill="#A4A4A4"/>
<path d="M87.1877 6.80282H92.0282V10.0746C92.4425 8.93005 93.0857 8.0446 93.9579 7.41831C94.8518 6.79202 95.9638 6.47887 97.2939 6.47887C97.73 6.47887 98.1006 6.52207 98.4059 6.60845L98.1115 9.42676C97.7627 9.25399 97.3048 9.16761 96.7379 9.16761C95.1244 9.16761 93.9361 9.81549 93.1729 11.1113C92.4098 12.407 92.0282 13.9296 92.0282 15.6789V22.6761H87.1877V6.80282Z" fill="#A4A4A4"/>
<path d="M109.992 23C107.942 23 106.165 22.6653 104.661 21.9958C103.156 21.3263 102.001 20.3761 101.194 19.1451C100.387 17.8925 99.9839 16.4239 99.9839 14.7394C99.9839 13.0549 100.387 11.5972 101.194 10.3662C102.001 9.11362 103.156 8.15258 104.661 7.4831C106.165 6.81362 107.942 6.47887 109.992 6.47887C112.042 6.47887 113.819 6.81362 115.323 7.4831C116.828 8.15258 117.983 9.11362 118.79 10.3662C119.597 11.5972 120 13.0549 120 14.7394C120 16.4239 119.597 17.8925 118.79 19.1451C117.983 20.3761 116.828 21.3263 115.323 21.9958C113.819 22.6653 112.042 23 109.992 23ZM109.992 21.3155C111.584 21.3155 112.837 20.7324 113.753 19.5662C114.669 18.3784 115.127 16.7695 115.127 14.7394C115.127 12.7094 114.669 11.1113 113.753 9.94507C112.837 8.75728 111.584 8.16338 109.992 8.16338C108.4 8.16338 107.147 8.75728 106.231 9.94507C105.315 11.1113 104.857 12.7094 104.857 14.7394C104.857 16.7695 105.315 18.3784 106.231 19.5662C107.147 20.7324 108.4 21.3155 109.992 21.3155Z" fill="#A4A4A4"/>
</svg>
