<svg width="135" height="67" viewBox="0 0 135 67" fill="none" xmlns="http://www.w3.org/2000/svg">
<path d="M67.0113 0.000186021C64.3109 0.000186139 61.637 0.532066 59.1422 1.56546C56.6473 2.59885 54.3805 4.11352 52.471 6.02298C50.5616 7.93243 49.0469 10.1993 48.0135 12.6941C46.9801 15.1889 46.4482 17.8629 46.4482 20.5633C46.4482 23.2636 46.9801 25.9376 48.0135 28.4324C49.0469 30.9272 50.5616 33.1941 52.471 35.1036C54.3805 37.013 56.6473 38.5277 59.1422 39.5611C61.637 40.5945 64.3109 41.1263 67.0113 41.1263L67.0113 20.5633L67.0113 0.000186021Z" fill="#A4A4A4"/>
<path d="M67.0116 3.06272e-05C67.0116 2.70041 67.5435 5.37435 68.5769 7.86918C69.6103 10.364 71.125 12.6309 73.0344 14.5403C74.9439 16.4498 77.2107 17.9644 79.7056 18.9978C82.2004 20.0312 84.8743 20.5631 87.5747 20.5631L87.5747 3.24249e-05L67.0116 3.06272e-05Z" fill="#A4A4A4"/>
<path d="M87.5753 41.1262C87.5753 38.4258 87.0434 35.7519 86.01 33.257C84.9766 30.7622 83.462 28.4954 81.5525 26.5859C79.643 24.6764 77.3762 23.1618 74.8814 22.1284C72.3865 21.095 69.7126 20.5631 67.0122 20.5631V41.1262H87.5753Z" fill="#A4A4A4"/>
<path d="M12.9088 64.3699V58.4864H7.02531V61.0604H10.0251V62.9958C9.26387 63.5377 8.32845 63.8086 7.21885 63.8086C6.61244 63.8086 6.05764 63.7054 5.55445 63.499C5.06416 63.2796 4.63193 62.9764 4.25777 62.5894C3.8965 62.2023 3.61265 61.7507 3.40621 61.2346C3.21268 60.7056 3.11591 60.1315 3.11591 59.5122V59.4735C3.11591 58.8928 3.21268 58.351 3.40621 57.8478C3.61265 57.3317 3.89005 56.8865 4.23841 56.5124C4.59968 56.1253 5.01255 55.8221 5.47704 55.6028C5.95442 55.3705 6.46406 55.2544 7.00596 55.2544C7.39303 55.2544 7.74784 55.2866 8.0704 55.3512C8.39296 55.4157 8.68971 55.506 8.96066 55.6221C9.24451 55.7382 9.51546 55.8802 9.77351 56.0479C10.0316 56.2156 10.2896 56.4092 10.5476 56.6285L12.4249 54.3641C12.0766 54.0674 11.7153 53.8029 11.3411 53.5706C10.967 53.3384 10.567 53.1449 10.1412 52.99C9.71545 52.8352 9.25097 52.7191 8.74778 52.6417C8.25749 52.5514 7.70914 52.5062 7.10273 52.5062C6.07054 52.5062 5.12222 52.6933 4.25777 53.0675C3.39331 53.4287 2.64498 53.9319 2.01276 54.577C1.38055 55.2092 0.883809 55.9511 0.522544 56.8027C0.174181 57.6413 0 58.5445 0 59.5122V59.5509C0 60.5572 0.174181 61.4862 0.522544 62.3378C0.870907 63.1893 1.35474 63.9248 1.97406 64.5441C2.60627 65.1634 3.3546 65.6472 4.21906 65.9956C5.09642 66.3439 6.06409 66.5181 7.12208 66.5181C8.36071 66.5181 9.4574 66.3117 10.4122 65.8988C11.3798 65.473 12.212 64.9634 12.9088 64.3699Z" fill="#A4A4A4"/>
<path d="M21.7181 58.7961V55.7189C20.8407 55.6802 20.144 55.8737 19.6279 56.2995C19.1118 56.7253 18.7054 57.293 18.4086 58.0026V55.9124H15.4669V66.2859H18.4086V62.4539C18.4086 61.2024 18.686 60.2798 19.2408 59.6863C19.8085 59.0928 20.5827 58.7961 21.5633 58.7961H21.7181Z" fill="#A4A4A4"/>
<path d="M33.2328 61.3894V61.3507C33.2328 60.6153 33.1296 59.9121 32.9231 59.2412C32.7296 58.5574 32.42 57.9574 31.9942 57.4413C31.5813 56.9123 31.0588 56.493 30.4265 56.1834C29.7943 55.8737 29.046 55.7189 28.1815 55.7189C27.4203 55.7189 26.7236 55.8608 26.0914 56.1447C25.4721 56.4285 24.9366 56.8156 24.485 57.3059C24.0334 57.7962 23.6786 58.3703 23.4206 59.0283C23.1754 59.6863 23.0529 60.3831 23.0529 61.1185V61.1572C23.0529 61.9572 23.1883 62.6861 23.4593 63.3442C23.7302 63.9893 24.1044 64.5505 24.5818 65.0279C25.0721 65.5053 25.6462 65.873 26.3043 66.1311C26.9752 66.3891 27.6977 66.5181 28.4718 66.5181C29.4137 66.5181 30.233 66.3504 30.9297 66.0149C31.6265 65.6666 32.22 65.1892 32.7103 64.5828L31.0265 63.0926C30.6136 63.4667 30.2137 63.7377 29.8266 63.9054C29.4395 64.0731 29.0008 64.157 28.5106 64.157C27.8525 64.157 27.2977 63.9893 26.8462 63.6538C26.4075 63.3054 26.1172 62.7958 25.9753 62.1249H33.1941C33.207 61.983 33.2135 61.8604 33.2135 61.7572C33.2264 61.6539 33.2328 61.5314 33.2328 61.3894ZM30.3685 60.2863H25.9365C26.0527 59.6154 26.2978 59.0799 26.672 58.68C27.059 58.28 27.5622 58.08 28.1815 58.08C28.8009 58.08 29.2976 58.2864 29.6718 58.6993C30.0459 59.0993 30.2782 59.6283 30.3685 60.2863Z" fill="#A4A4A4"/>
<path d="M45.1019 61.3894V61.3507C45.1019 60.6153 44.9987 59.9121 44.7923 59.2412C44.5987 58.5574 44.2891 57.9574 43.8633 57.4413C43.4504 56.9123 42.9279 56.493 42.2957 56.1834C41.6635 55.8737 40.9151 55.7189 40.0507 55.7189C39.2894 55.7189 38.5927 55.8608 37.9605 56.1447C37.3412 56.4285 36.8057 56.8156 36.3542 57.3059C35.9026 57.7962 35.5478 58.3703 35.2897 59.0283C35.0446 59.6863 34.922 60.3831 34.922 61.1185V61.1572C34.922 61.9572 35.0575 62.6861 35.3284 63.3442C35.5994 63.9893 35.9735 64.5505 36.4509 65.0279C36.9412 65.5053 37.5154 65.873 38.1734 66.1311C38.8443 66.3891 39.5668 66.5181 40.341 66.5181C41.2828 66.5181 42.1021 66.3504 42.7989 66.0149C43.4956 65.6666 44.0891 65.1892 44.5794 64.5828L42.8956 63.0926C42.4828 63.4667 42.0828 63.7377 41.6957 63.9054C41.3087 64.0731 40.87 64.157 40.3797 64.157C39.7217 64.157 39.1669 63.9893 38.7153 63.6538C38.2766 63.3054 37.9863 62.7958 37.8444 62.1249H45.0632C45.0761 61.983 45.0826 61.8604 45.0826 61.7572C45.0955 61.6539 45.1019 61.5314 45.1019 61.3894ZM42.2376 60.2863H37.8057C37.9218 59.6154 38.1669 59.0799 38.5411 58.68C38.9282 58.28 39.4314 58.08 40.0507 58.08C40.67 58.08 41.1667 58.2864 41.5409 58.6993C41.9151 59.0993 42.1473 59.6283 42.2376 60.2863Z" fill="#A4A4A4"/>
<path d="M56.7969 66.2859V59.5702C56.7969 58.3703 56.4872 57.4284 55.8679 56.7446C55.2615 56.0608 54.397 55.7189 53.2745 55.7189C52.9004 55.7189 52.5649 55.764 52.2682 55.8544C51.9714 55.9447 51.7005 56.0672 51.4553 56.2221C51.2102 56.3769 50.9844 56.5575 50.7779 56.764C50.5844 56.9575 50.4038 57.1639 50.236 57.3833V55.9124H47.2943V66.2859H50.236V60.4992C50.236 59.8025 50.3973 59.2799 50.7199 58.9316C51.0553 58.5703 51.5069 58.3897 52.0746 58.3897C52.6423 58.3897 53.081 58.5703 53.3907 58.9316C53.7003 59.2799 53.8551 59.8025 53.8551 60.4992V66.2859H56.7969Z" fill="#A4A4A4"/>
<path d="M77.7732 64.3699V58.4864H71.8897V61.0604H74.8895V62.9958C74.1283 63.5377 73.1929 63.8086 72.0833 63.8086C71.4769 63.8086 70.9221 63.7054 70.4189 63.499C69.9286 63.2796 69.4963 62.9764 69.1222 62.5894C68.7609 62.2023 68.4771 61.7507 68.2706 61.2346C68.0771 60.7056 67.9803 60.1315 67.9803 59.5122V59.4735C67.9803 58.8928 68.0771 58.351 68.2706 57.8478C68.4771 57.3317 68.7545 56.8865 69.1028 56.5124C69.4641 56.1253 69.877 55.8221 70.3415 55.6028C70.8188 55.3705 71.3285 55.2544 71.8704 55.2544C72.2574 55.2544 72.6123 55.2866 72.9348 55.3512C73.2574 55.4157 73.5541 55.506 73.8251 55.6221C74.1089 55.7382 74.3799 55.8802 74.6379 56.0479C74.896 56.2156 75.154 56.4092 75.4121 56.6285L77.2894 54.3641C76.941 54.0674 76.5797 53.8029 76.2056 53.5706C75.8314 53.3384 75.4314 53.1449 75.0056 52.99C74.5799 52.8352 74.1154 52.7191 73.6122 52.6417C73.1219 52.5514 72.5736 52.5062 71.9671 52.5062C70.935 52.5062 69.9866 52.6933 69.1222 53.0675C68.2577 53.4287 67.5094 53.9319 66.8772 54.577C66.245 55.2092 65.7482 55.9511 65.387 56.8027C65.0386 57.6413 64.8644 58.5445 64.8644 59.5122V59.5509C64.8644 60.5572 65.0386 61.4862 65.387 62.3378C65.7353 63.1893 66.2192 63.9248 66.8385 64.5441C67.4707 65.1634 68.219 65.6472 69.0835 65.9956C69.9608 66.3439 70.9285 66.5181 71.9865 66.5181C73.2251 66.5181 74.3218 66.3117 75.2766 65.8988C76.2443 65.473 77.0765 64.9634 77.7732 64.3699Z" fill="#A4A4A4"/>
<path d="M89.2533 66.2859V60.2669C89.2533 58.8606 88.8856 57.7639 88.1501 56.9769C87.4147 56.1898 86.2406 55.7963 84.6278 55.7963C83.7504 55.7963 83.0021 55.8737 82.3828 56.0285C81.7635 56.1834 81.17 56.3833 80.6023 56.6285L81.3377 58.8735C81.8151 58.6929 82.2667 58.5574 82.6925 58.4671C83.1311 58.3639 83.6343 58.3122 84.202 58.3122C84.9375 58.3122 85.4923 58.4735 85.8664 58.7961C86.2406 59.1186 86.4277 59.5896 86.4277 60.2089V60.3831C86.0535 60.254 85.6664 60.1508 85.2665 60.0734C84.8794 59.996 84.4214 59.9573 83.8924 59.9573C83.2731 59.9573 82.7054 60.0283 82.1893 60.1702C81.6861 60.2992 81.2474 60.4992 80.8732 60.7701C80.512 61.0411 80.2281 61.383 80.0217 61.7959C79.8152 62.2087 79.712 62.699 79.712 63.2667V63.3054C79.712 63.8215 79.8023 64.2796 79.983 64.6795C80.1765 65.0666 80.4345 65.3956 80.7571 65.6666C81.0797 65.9375 81.4538 66.144 81.8796 66.2859C82.3183 66.4149 82.7828 66.4794 83.2731 66.4794C83.9956 66.4794 84.6084 66.3633 85.1116 66.1311C85.6148 65.8859 86.0471 65.5634 86.4083 65.1634V66.2859H89.2533ZM86.4664 62.6281C86.4664 63.17 86.2535 63.6086 85.8277 63.9441C85.4148 64.2796 84.86 64.4473 84.1633 64.4473C83.6859 64.4473 83.2989 64.3376 83.0021 64.1183C82.7054 63.899 82.557 63.5893 82.557 63.1893V63.1506C82.557 62.6861 82.7376 62.3313 83.0989 62.0862C83.4601 61.841 83.9569 61.7185 84.5891 61.7185C84.9504 61.7185 85.2858 61.7572 85.5955 61.8346C85.918 61.8991 86.2083 61.9894 86.4664 62.1055V62.6281Z" fill="#A4A4A4"/>
<path d="M98.0358 58.7961V55.7189C97.1585 55.6802 96.4618 55.8737 95.9457 56.2995C95.4296 56.7253 95.0231 57.293 94.7264 58.0026V55.9124H91.7847V66.2859H94.7264V62.4539C94.7264 61.2024 95.0038 60.2798 95.5586 59.6863C96.1263 59.0928 96.9004 58.7961 97.881 58.7961H98.0358Z" fill="#A4A4A4"/>
<path d="M110.305 66.2859V52.1578H107.364V57.2672C107.015 56.8543 106.583 56.493 106.067 56.1834C105.564 55.8737 104.919 55.7189 104.132 55.7189C103.512 55.7189 102.919 55.835 102.351 56.0672C101.783 56.2995 101.28 56.6478 100.841 57.1123C100.416 57.5639 100.067 58.1252 99.7964 58.7961C99.5383 59.4541 99.4093 60.2153 99.4093 61.0798V61.1185C99.4093 61.983 99.5383 62.7506 99.7964 63.4216C100.067 64.0796 100.422 64.6408 100.861 65.1053C101.3 65.5569 101.803 65.8988 102.37 66.1311C102.938 66.3633 103.525 66.4794 104.132 66.4794C104.906 66.4794 105.544 66.3246 106.048 66.0149C106.564 65.6924 107.002 65.286 107.364 64.7957V66.2859H110.305ZM107.402 61.1185C107.402 61.5443 107.331 61.9378 107.189 62.2991C107.06 62.6474 106.88 62.9506 106.648 63.2087C106.428 63.4538 106.164 63.6474 105.854 63.7893C105.557 63.9183 105.235 63.9828 104.886 63.9828C104.538 63.9828 104.209 63.9183 103.899 63.7893C103.603 63.6474 103.338 63.4538 103.106 63.2087C102.874 62.9506 102.687 62.6474 102.545 62.2991C102.416 61.9378 102.351 61.5443 102.351 61.1185V61.0798C102.351 60.6411 102.416 60.2476 102.545 59.8992C102.687 59.5509 102.874 59.2541 103.106 59.009C103.338 58.7509 103.603 58.5574 103.899 58.4284C104.209 58.2864 104.538 58.2155 104.886 58.2155C105.235 58.2155 105.557 58.2864 105.854 58.4284C106.164 58.5574 106.428 58.7509 106.648 59.009C106.88 59.2541 107.06 59.5573 107.189 59.9186C107.331 60.2669 107.402 60.654 107.402 61.0798V61.1185Z" fill="#A4A4A4"/>
<path d="M122.61 61.3894V61.3507C122.61 60.6153 122.507 59.9121 122.301 59.2412C122.107 58.5574 121.798 57.9574 121.372 57.4413C120.959 56.9123 120.436 56.493 119.804 56.1834C119.172 55.8737 118.424 55.7189 117.559 55.7189C116.798 55.7189 116.101 55.8608 115.469 56.1447C114.85 56.4285 114.314 56.8156 113.863 57.3059C113.411 57.7962 113.056 58.3703 112.798 59.0283C112.553 59.6863 112.43 60.3831 112.43 61.1185V61.1572C112.43 61.9572 112.566 62.6861 112.837 63.3442C113.108 63.9893 113.482 64.5505 113.959 65.0279C114.45 65.5053 115.024 65.873 115.682 66.1311C116.353 66.3891 117.075 66.5181 117.849 66.5181C118.791 66.5181 119.611 66.3504 120.307 66.0149C121.004 65.6666 121.598 65.1892 122.088 64.5828L120.404 63.0926C119.991 63.4667 119.591 63.7377 119.204 63.9054C118.817 64.0731 118.378 64.157 117.888 64.157C117.23 64.157 116.675 63.9893 116.224 63.6538C115.785 63.3054 115.495 62.7958 115.353 62.1249H122.572C122.585 61.983 122.591 61.8604 122.591 61.7572C122.604 61.6539 122.61 61.5314 122.61 61.3894ZM119.746 60.2863H115.314C115.43 59.6154 115.675 59.0799 116.05 58.68C116.437 58.28 116.94 58.08 117.559 58.08C118.178 58.08 118.675 58.2864 119.049 58.6993C119.424 59.0993 119.656 59.6283 119.746 60.2863Z" fill="#A4A4A4"/>
<path d="M134.305 66.2859V59.5702C134.305 58.3703 133.996 57.4284 133.376 56.7446C132.77 56.0608 131.905 55.7189 130.783 55.7189C130.409 55.7189 130.073 55.764 129.777 55.8544C129.48 55.9447 129.209 56.0672 128.964 56.2221C128.719 56.3769 128.493 56.5575 128.286 56.764C128.093 56.9575 127.912 57.1639 127.744 57.3833V55.9124H124.803V66.2859H127.744V60.4992C127.744 59.8025 127.906 59.2799 128.228 58.9316C128.564 58.5703 129.015 58.3897 129.583 58.3897C130.151 58.3897 130.589 58.5703 130.899 58.9316C131.209 59.2799 131.364 59.8025 131.364 60.4992V66.2859H134.305Z" fill="#A4A4A4"/>
</svg>
