<?xml version="1.0"?>
<svg xmlns="http://www.w3.org/2000/svg" xmlns:xlink="http://www.w3.org/1999/xlink" xmlns:svgjs="http://svgjs.com/svgjs" version="1.1" width="512" height="512" x="0" y="0" viewBox="0 0 472.05122 472" style="enable-background:new 0 0 512 512" xml:space="preserve" class=""><g><path xmlns="http://www.w3.org/2000/svg" d="m7.992188 191.027344h16.007812v124.507812c0 28.308594 21.898438 51.492188 48.699219 51.492188h180.429687c16.960938 41 57.738282 70.6875 105.238282 70.6875 52.136718 0 97.59375-35.464844 110.269531-86.039063 12.679687-50.574219-10.664063-103.289062-56.636719-127.886719v-32.761718h16.027344c2.09375.054687 4.117187-.738282 5.621094-2.199219 1.5-1.457031 2.347656-3.460937 2.351562-5.554687v-66.523438c0-28.308594-21.773438-51.722656-48.574219-51.722656h-89.425781v-13.277344c0-28.308594-21.523438-51.7226562-48.324219-51.7226562h-69.230469c-26.796874 0-48.445312 23.4140622-48.445312 51.7226562v13.277344h-83.410156c-26.796875 0-48.589844 23.414062-48.589844 51.722656v66.523438c.0078125 2.09375.859375 4.097656 2.363281 5.558593 1.503907 1.457031 3.535157 2.25 5.628907 2.195313zm448.015624 132.972656c0 53.925781-43.714843 97.644531-97.640624 97.644531-53.929688 0-97.644532-43.71875-97.644532-97.644531s43.714844-97.640625 97.644532-97.640625c53.898437.058594 97.582031 43.738281 97.640624 97.640625zm-60.007812-107.261719c-12.085938-4.214843-24.792969-6.371093-37.589844-6.378906-62.664062 0-113.664062 51.050781-113.664062 113.714844.011718 9.078125 1.085937 18.121093 3.199218 26.953125h-175.246093c-17.976563 0-32.699219-16-32.699219-35.492188v-124.507812h120v29.183594c-.011719 2.09375.824219 4.105468 2.316406 5.574218 1.488282 1.472656 3.511719 2.277344 5.605469 2.242188h93.742187c4.421876 0 8.335938-3.402344 8.335938-7.816406v-29.183594h126zm-220-4.710937v-58h78v58zm-28-160.277344c0-19.488281 14.472656-35.722656 32.445312-35.722656h69.230469c17.976563 0 32.324219 16.234375 32.324219 35.722656v13.277344h-134zm-132 65c0-19.488281 14.613281-35.722656 32.589844-35.722656h338.835937c17.972657 0 32.574219 16.234375 32.574219 35.722656v58.277344h-150v-28.691406c-.132812-4.542969-3.789062-8.191407-8.335938-8.308594h-93.742187c-4.464844.148437-7.984375 3.84375-7.921875 8.308594v28.691406h-144zm0 0" fill="#ffffff" data-original="#000000" class=""/><path xmlns="http://www.w3.org/2000/svg" d="m322.757812 276.617188c0 19.664062 15.941407 35.609374 35.609376 35.609374 19.664062 0 35.609374-15.941406 35.609374-35.609374 0-19.664063-15.945312-35.609376-35.609374-35.609376-19.65625.023438-35.585938 15.953126-35.609376 35.609376zm55.214844 0c0 10.828124-8.777344 19.609374-19.605468 19.609374-10.828126 0-19.609376-8.777343-19.609376-19.609374 0-10.828126 8.777344-19.609376 19.609376-19.609376 10.824218.011719 19.59375 8.785157 19.605468 19.609376zm0 0" fill="#ffffff" data-original="#000000" class=""/><path xmlns="http://www.w3.org/2000/svg" d="m385.0625 312.027344c-2.566406.066406-4.957031 1.339844-6.445312 3.433594-1.503907 2.078124-3.316407 3.917968-5.371094 5.457031-11.226563 8.160156-26.9375 5.699219-35.132813-5.5-1.492187-2.085938-3.882812-3.34375-6.445312-3.390625-18.105469 0-32.667969 15.085937-32.667969 33.191406v37.773438c-.039062 2.105468.765625 4.140624 2.238281 5.652343 1.472657 1.507813 3.488281 2.367188 5.59375 2.382813h103.066407c4.445312-.011719 8.058593-3.59375 8.101562-8.035156v-37.773438c0-18.101562-14.828125-33.191406-32.933594-33.191406zm3.5 16.699218c7.808594 1.640626 13.40625 8.515626 13.4375 16.492188v29.808594h-87v-29.808594c-.027344-7.949219 5.523438-14.832031 13.300781-16.488281 7.769531 8.398437 18.695313 13.171875 30.136719 13.171875s22.363281-4.773438 30.136719-13.171875zm0 0" fill="#ffffff" data-original="#000000" class=""/></g></svg>
