<?xml version="1.0"?>
<svg xmlns="http://www.w3.org/2000/svg" xmlns:xlink="http://www.w3.org/1999/xlink" xmlns:svgjs="http://svgjs.com/svgjs" version="1.1" width="512" height="512" x="0" y="0" viewBox="0 0 512 512.00043" style="enable-background:new 0 0 512 512" xml:space="preserve" class=""><g><path xmlns="http://www.w3.org/2000/svg" d="m89.910156 511.5h-79.917968c-5.519532 0-9.992188-4.472656-9.992188-9.988281v-155.847657c0-5.519531 4.472656-9.992187 9.992188-9.992187h79.917968c5.519532 0 9.992188 4.472656 9.992188 9.992187v155.847657c0 5.515625-4.472656 9.988281-9.992188 9.988281zm-69.929687-19.980469h59.941406v-135.867187h-59.941406zm0 0" fill="#7629ed" data-original="#000000" class=""/><path xmlns="http://www.w3.org/2000/svg" d="m227.109375 512h-79.921875c-5.515625 0-9.988281-4.472656-9.988281-9.988281v-215.789063c0-5.519531 4.472656-9.992187 9.988281-9.992187h79.921875c5.519531 0 9.992187 4.472656 9.992187 9.992187v215.789063c0 5.515625-4.472656 9.988281-9.992187 9.988281zm-69.929687-19.980469h59.941406v-195.808593h-59.941406zm0 0" fill="#7629ed" data-original="#000000" class=""/><path xmlns="http://www.w3.org/2000/svg" d="m364.308594 511.5h-79.921875c-5.515625 0-9.988281-4.472656-9.988281-9.988281v-311.695313c0-5.519531 4.472656-9.992187 9.988281-9.992187h79.921875c5.519531 0 9.992187 4.472656 9.992187 9.992187v100.234375c0 5.519531-4.472656 9.992188-9.992187 9.992188-5.515625 0-9.988282-4.472657-9.988282-9.992188v-90.246093h-59.941406v291.714843h59.941406v-118.214843c0-5.519532 4.472657-9.992188 9.988282-9.992188 5.519531 0 9.992187 4.472656 9.992187 9.992188v128.207031c0 5.515625-4.472656 9.988281-9.992187 9.988281zm0 0" fill="#7629ed" data-original="#000000" class=""/><path xmlns="http://www.w3.org/2000/svg" d="m364.3125 343.996094c-2.636719 0-5.203125-1.058594-7.0625-2.929688-1.867188-1.855468-2.925781-4.433594-2.925781-7.0625 0-2.625 1.058593-5.203125 2.925781-7.0625 1.859375-1.859375 4.425781-2.925781 7.0625-2.925781 2.628906 0 5.207031 1.066406 7.0625 2.925781 1.859375 1.859375 2.929688 4.4375 2.929688 7.0625 0 2.628906-1.070313 5.207032-2.929688 7.0625-1.855469 1.871094-4.433594 2.929688-7.0625 2.929688zm0 0" fill="#7629ed" data-original="#000000" class=""/><path xmlns="http://www.w3.org/2000/svg" d="m501.507812 511.5h-79.921874c-5.515626 0-9.988282-4.472656-9.988282-9.988281v-373.632813c0-5.519531 4.472656-9.992187 9.988282-9.992187h79.921874c5.515626 0 9.992188 4.472656 9.992188 9.992187v373.632813c0 5.515625-4.472656 9.988281-9.992188 9.988281zm-69.929687-19.980469h59.941406v-353.652343h-59.941406zm0 0" fill="#7629ed" data-original="#000000" class=""/><path xmlns="http://www.w3.org/2000/svg" d="m49.945312 190.152344c-4.425781 0-8.472656-2.964844-9.652343-7.445313-1.40625-5.332031 1.773437-10.800781 7.109375-12.207031 2.046875-.542969 207.011718-55.335938 409.246094-169.210938 4.804687-2.710937 10.894531-1.007812 13.605468 3.800782 2.707032 4.808594 1.003906 10.898437-3.804687 13.605468-106.902344 60.199219-213.695313 103.5-284.460938 129.226563-76.714843 27.890625-128.972656 41.761719-129.488281 41.898437-.855469.222657-1.710938.332032-2.554688.332032zm0 0" fill="#7629ed" data-original="#000000" class=""/><path xmlns="http://www.w3.org/2000/svg" d="m449.730469 46.558594c-1.351563 0-2.730469-.277344-4.050781-.863282-5.042969-2.242187-7.3125-8.144531-5.070313-13.1875l5.566406-12.523437h-14.265625c-5.515625 0-9.992187-4.472656-9.992187-9.992187 0-5.515626 4.476562-9.98828175 9.992187-9.98828175h29.636719c3.382813 0 6.535156 1.70703175 8.378906 4.54687475 1.84375 2.835938 2.125 6.410157.75 9.5l-11.808593 26.570313c-1.65625 3.722656-5.308594 5.9375-9.136719 5.9375zm0 0" fill="#7629ed" data-original="#000000" class=""/></g></svg>
