<svg width="140" height="20" viewBox="0 0 140 20" fill="none" xmlns="http://www.w3.org/2000/svg">
<path d="M9.99997 15.2169L4.12247 18.5069L5.43497 11.9002L0.489136 7.32687L7.1783 6.53354L9.99997 0.41687L12.8216 6.53354L19.5108 7.32687L14.565 11.9002L15.8775 18.5069L9.99997 15.2169Z" fill="#FFA63D"/>
<path d="M40 15.2169L34.1225 18.5069L35.435 11.9002L30.4891 7.32687L37.1783 6.53354L40 0.41687L42.8216 6.53354L49.5108 7.32687L44.565 11.9002L45.8775 18.5069L40 15.2169Z" fill="#FFA63D"/>
<path d="M100 15.2169L94.1225 18.5069L95.435 11.9002L90.4891 7.32687L97.1783 6.53354L100 0.41687L102.822 6.53354L109.511 7.32687L104.565 11.9002L105.877 18.5069L100 15.2169Z" fill="#FFA63D"/>
<path d="M70 15.2169L64.1225 18.5069L65.435 11.9002L60.4891 7.32687L67.1783 6.53354L70 0.41687L72.8216 6.53354L79.5108 7.32687L74.565 11.9002L75.8775 18.5069L70 15.2169Z" fill="#FFA63D"/>
<path d="M130 15.2169L124.122 18.5069L125.435 11.9002L120.489 7.32687L127.178 6.53354L130 0.41687L132.822 6.53354L139.511 7.32687L134.565 11.9002L135.877 18.5069L130 15.2169Z" fill="#FFA63D"/>
</svg>
