<svg width="182" height="25" viewBox="0 0 182 25" fill="none" xmlns="http://www.w3.org/2000/svg">
<path d="M8.95809 7.93272L12.0982 1.60909C12.1896 1.42608 12.3301 1.27215 12.5041 1.16457C12.6781 1.05699 12.8786 1 13.0832 1C13.2878 1 13.4883 1.05699 13.6623 1.16457C13.8363 1.27215 13.9768 1.42608 14.0682 1.60909L17.2083 7.93272L24.2281 8.95282C24.4306 8.98089 24.6211 9.06533 24.7779 9.19649C24.9347 9.32765 25.0514 9.50025 25.1148 9.69459C25.1782 9.88893 25.1857 10.0972 25.1364 10.2956C25.0871 10.4939 24.983 10.6745 24.8361 10.8165L19.7573 15.7357L20.9563 22.6854C21.1098 23.5774 20.1671 24.2567 19.3609 23.8361L13.0832 20.5534L6.80429 23.8361C5.99933 24.2579 5.05659 23.5774 5.21008 22.6842L6.40906 15.7345L1.33033 10.8153C1.18407 10.6732 1.08062 10.4928 1.03175 10.2948C0.982884 10.0968 0.990549 9.88899 1.05388 9.6951C1.11721 9.50121 1.23366 9.32897 1.39 9.19797C1.54634 9.06696 1.7363 8.98245 1.93828 8.95402L8.95809 7.93272Z" fill="#FFD600" stroke="#FFD600" stroke-width="1.5" stroke-linecap="round" stroke-linejoin="round"/>
<path d="M47.8087 7.93272L50.9487 1.60909C51.0401 1.42608 51.1807 1.27215 51.3547 1.16457C51.5287 1.05699 51.7292 1 51.9338 1C52.1383 1 52.3389 1.05699 52.5129 1.16457C52.6868 1.27215 52.8274 1.42608 52.9188 1.60909L56.0589 7.93272L63.0787 8.95282C63.2812 8.98089 63.4717 9.06533 63.6285 9.19649C63.7853 9.32765 63.902 9.50025 63.9654 9.69459C64.0288 9.88893 64.0363 10.0972 63.987 10.2956C63.9377 10.4939 63.8336 10.6745 63.6867 10.8165L58.6079 15.7357L59.8069 22.6854C59.9604 23.5774 59.0177 24.2567 58.2115 23.8361L51.9338 20.5534L45.6549 23.8361C44.8499 24.2579 43.9072 23.5774 44.0607 22.6842L45.2596 15.7345L40.1809 10.8153C40.0347 10.6732 39.9312 10.4928 39.8823 10.2948C39.8335 10.0968 39.8411 9.88899 39.9045 9.6951C39.9678 9.50121 40.0842 9.32897 40.2406 9.19797C40.3969 9.06696 40.5869 8.98245 40.7889 8.95402L47.8087 7.93272Z" fill="#FFD600" stroke="#FFD600" stroke-width="1.5" stroke-linecap="round" stroke-linejoin="round"/>
<path d="M86.6583 7.93272L89.7983 1.60909C89.8898 1.42608 90.0303 1.27215 90.2043 1.16457C90.3783 1.05699 90.5788 1 90.7834 1C90.988 1 91.1885 1.05699 91.3625 1.16457C91.5365 1.27215 91.677 1.42608 91.7684 1.60909L94.9085 7.93272L101.928 8.95282C102.131 8.98089 102.321 9.06533 102.478 9.19649C102.635 9.32765 102.752 9.50025 102.815 9.69459C102.878 9.88893 102.886 10.0972 102.837 10.2956C102.787 10.4939 102.683 10.6745 102.536 10.8165L97.4575 15.7357L98.6565 22.6854C98.81 23.5774 97.8673 24.2567 97.0611 23.8361L90.7834 20.5534L84.5045 23.8361C83.6995 24.2579 82.7568 23.5774 82.9103 22.6842L84.1093 15.7345L79.0305 10.8153C78.8843 10.6732 78.7808 10.4928 78.7319 10.2948C78.6831 10.0968 78.6907 9.88899 78.7541 9.6951C78.8174 9.50121 78.9339 9.32897 79.0902 9.19797C79.2465 9.06696 79.4365 8.98245 79.6385 8.95402L86.6583 7.93272Z" fill="#FFD600" stroke="#FFD600" stroke-width="1.5" stroke-linecap="round" stroke-linejoin="round"/>
<path d="M125.509 7.93272L128.649 1.60909C128.74 1.42608 128.881 1.27215 129.055 1.16457C129.229 1.05699 129.429 1 129.634 1C129.839 1 130.039 1.05699 130.213 1.16457C130.387 1.27215 130.528 1.42608 130.619 1.60909L133.759 7.93272L140.779 8.95282C140.981 8.98089 141.172 9.06533 141.329 9.19649C141.485 9.32765 141.602 9.50025 141.666 9.69459C141.729 9.88893 141.736 10.0972 141.687 10.2956C141.638 10.4939 141.534 10.6745 141.387 10.8165L136.308 15.7357L137.507 22.6854C137.661 23.5774 136.718 24.2567 135.912 23.8361L129.634 20.5534L123.355 23.8361C122.55 24.2579 121.607 23.5774 121.761 22.6842L122.96 15.7345L117.881 10.8153C117.735 10.6732 117.631 10.4928 117.583 10.2948C117.534 10.0968 117.541 9.88899 117.605 9.6951C117.668 9.50121 117.784 9.32897 117.941 9.19797C118.097 9.06696 118.287 8.98245 118.489 8.95402L125.509 7.93272Z" fill="#FFD600" stroke="#FFD600" stroke-width="1.5" stroke-linecap="round" stroke-linejoin="round"/>
<path d="M164.359 7.93272L167.5 1.60909C167.591 1.42608 167.732 1.27215 167.905 1.16457C168.079 1.05699 168.28 1 168.485 1C168.689 1 168.89 1.05699 169.064 1.16457C169.238 1.27215 169.378 1.42608 169.47 1.60909L172.61 7.93272L179.629 8.95282C179.832 8.98089 180.022 9.06533 180.179 9.19649C180.336 9.32765 180.453 9.50025 180.516 9.69459C180.58 9.88893 180.587 10.0972 180.538 10.2956C180.488 10.4939 180.384 10.6745 180.237 10.8165L175.159 15.7357L176.358 22.6854C176.511 23.5774 175.568 24.2567 174.762 23.8361L168.485 20.5534L162.206 23.8361C161.401 24.2579 160.458 23.5774 160.611 22.6842L161.81 15.7345L156.732 10.8153C156.585 10.6732 156.482 10.4928 156.433 10.2948C156.384 10.0968 156.392 9.88899 156.455 9.6951C156.519 9.50121 156.635 9.32897 156.791 9.19797C156.948 9.06696 157.138 8.98245 157.34 8.95402L164.359 7.93272Z" fill="#FFD600" stroke="#FFD600" stroke-width="1.5" stroke-linecap="round" stroke-linejoin="round"/>
</svg>
