<?xml version="1.0"?>
<svg xmlns="http://www.w3.org/2000/svg" xmlns:xlink="http://www.w3.org/1999/xlink" xmlns:svgjs="http://svgjs.com/svgjs" version="1.1" width="512" height="512" x="0" y="0" viewBox="0 0 32 32" style="enable-background:new 0 0 512 512" xml:space="preserve" class=""><g><g xmlns="http://www.w3.org/2000/svg" id="step_x2C__career_x2C__rise_x2C__mission_x2C__person_x2C__flag"><g id="XMLID_2861_"><g id="XMLID_2905_"><g id="XMLID_2911_"><g id="XMLID_3037_" fill="rgb(0,0,0)"><path d="m6.179 29.008c-.055 0-.11-.009-.165-.028-.261-.091-.398-.376-.308-.637l3.188-9.155c.091-.26.376-.397.637-.308.261.091.398.376.308.637l-3.188 9.155c-.072.207-.265.336-.472.336z" fill="#7629ed" data-original="#000000"/><path d="m9.5 31h-3.518c-.779 0-1.5-.354-1.977-.97s-.638-1.402-.442-2.156l2.026-7.841c.069-.268.342-.431.609-.359.268.069.428.342.359.609l-2.026 7.841c-.117.453-.021.924.266 1.293.286.371.718.583 1.185.583h3.518c.276 0 .5.224.5.5s-.224.5-.5.5z" fill="#7629ed" data-original="#000000"/></g></g><g fill="rgb(0,0,0)"><path d="m14.438 27h-.336c-.816 0-1.557-.38-2.032-1.043s-.598-1.486-.336-2.259l1.318-3.651-4.142-.2c-.847-.078-1.611-.497-2.118-1.152s-.723-1.5-.59-2.318l.983-5.674c.047-.272.307-.453.578-.407.272.047.455.306.407.578l-.982 5.668c-.089.548.051 1.098.395 1.541.343.443.839.715 1.397.767l4.796.231c.159.008.304.09.392.222s.108.298.054.447l-1.545 4.278c-.154.454-.08.948.205 1.346s.73.626 1.22.626h.336c.276 0 .5.224.5.5s-.224.5-.5.5z" fill="#7629ed" data-original="#000000"/><path d="m2.501 16.467c-.108 0-.218-.012-.325-.036-.808-.179-1.319-.982-1.141-1.789l1.003-3.981c.101-.45.42-.84.853-1.031l3.625-1.611c.802-.356 1.689-.507 2.565-.434l5.044.42c.309.025.598.144.836.342l2.205 1.838 2.385-1.298c.339-.195.743-.247 1.13-.14.386.105.708.355.908.703.199.348.25.752.145 1.139s-.355.709-.703.908l-3.293 1.81c-.533.304-1.218.243-1.697-.153l-1.494-.912c-.235-.145-.309-.453-.165-.688.145-.236.453-.309.688-.165l1.552.953c.218.175.447.195.628.092l3.292-1.809c.109-.063.192-.17.227-.299.035-.128.018-.263-.048-.379-.137-.24-.443-.322-.682-.187l-2.693 1.466c-.18.099-.401.076-.56-.055l-2.466-2.055c-.079-.066-.176-.106-.279-.115l-5.044-.42c-.711-.058-1.427.063-2.075.352l-3.625 1.611c-.145.064-.251.194-.286.349l-1.003 3.979c-.056.255.114.523.383.583s.538-.117.597-.379l.895-3.49c.043-.168.17-.301.335-.353l3.332-1.043c.264-.084.543.064.626.328s-.064.544-.328.626l-3.066.96-.821 3.205c-.148.664-.763 1.158-1.46 1.158z" fill="#7629ed" data-original="#000000"/><path d="m14.156 25c-.077 0-.155-.018-.229-.056-.246-.126-.342-.428-.215-.673l2.793-5.42c.119-.268.101-.608-.06-.886-.161-.277-.447-.461-.767-.493l-3.932-.625c-.142-.022-.268-.105-.344-.227s-.097-.271-.057-.408l1.706-5.792c.078-.264.356-.417.621-.338.265.078.417.356.338.621l-1.545 5.246 3.341.532c.609.059 1.182.428 1.503.982s.358 1.235.096 1.821l-2.805 5.445c-.088.173-.263.271-.444.271z" fill="#7629ed" data-original="#000000"/></g></g><g><path d="m12 7c-1.654 0-3-1.346-3-3s1.346-3 3-3 3 1.346 3 3-1.346 3-3 3zm0-5c-1.103 0-2 .897-2 2s.897 2 2 2 2-.897 2-2-.897-2-2-2z" fill="#7629ed" data-original="#000000"/></g><g fill="rgb(0,0,0)"><path d="m17.5 27h-3c-.276 0-.5-.224-.5-.5s.224-.5.5-.5h2.5v-1.5c0-.276.224-.5.5-.5h3.5v-1.5c0-.276.224-.5.5-.5h8c.276 0 .5.224.5.5v2c0 .276-.224.5-.5.5s-.5-.224-.5-.5v-1.5h-7v1.5c0 .276-.224.5-.5.5h-3.5v1.5c0 .276-.224.5-.5.5z" fill="#7629ed" data-original="#000000"/><path d="m25.5 23c-.276 0-.5-.224-.5-.5v-20.5c0-.276.224-.5.5-.5s.5.224.5.5v20.5c0 .276-.224.5-.5.5z" fill="#7629ed" data-original="#000000"/><path d="m9.5 31h-3c-.276 0-.5-.224-.5-.5s.224-.5.5-.5h2.5v-1.5c0-.276.224-.5.5-.5h3.5v-1c0-.276.224-.5.5-.5s.5.224.5.5v1.5c0 .276-.224.5-.5.5h-3.5v1.5c0 .276-.224.5-.5.5z" fill="#7629ed" data-original="#000000"/></g></g><path d="m30.5 6h-5c-.276 0-.5-.224-.5-.5v-4c0-.276.224-.5.5-.5s.5.224.5.5v3.5h3.691l-.638-1.276c-.07-.141-.07-.307 0-.447l.638-1.277h-2.191c-.276 0-.5-.224-.5-.5s.224-.5.5-.5h3c.173 0 .334.09.425.237s.1.332.022.486l-.888 1.777.888 1.776c.078.155.069.339-.022.486s-.252.238-.425.238z" fill="#7629ed" data-original="#000000"/></g></g></svg>
