<?xml version="1.0" encoding="UTF-8"?><svg id="Layer_1" xmlns="http://www.w3.org/2000/svg" viewBox="0 0 500 96"><defs><style>.cls-1{fill:#fff;}</style></defs><path class="cls-1" d="M51.94,85.58c-5.63,3.25-12.83,1.32-16.08-4.31L4.24,26.5c-3.25-5.63-1.32-12.83,4.31-16.08,1.85-1.07,3.88-1.58,5.87-1.58,4.07,0,8.03,2.11,10.21,5.89l31.62,54.78c3.25,5.63,1.32,12.83-4.31,16.08"/><path class="cls-1" d="M83.32,26.01c0,4.74-1.92,9.03-5.03,12.14-3.49,3.48-8.46,5.48-13.89,4.94-8.03-.8-14.53-7.29-15.32-15.33-.54-5.43,1.45-10.41,4.94-13.89,3.11-3.1,7.4-5.03,12.14-5.03s9.03,1.92,12.14,5.03c3.11,3.1,5.03,7.4,5.03,12.14"/><path class="cls-1" d="M100.15,19.44h42.01c0,4.53-3.67,8.21-8.21,8.21h-24.89v15.72h28.03v8.21h-28.03v16.77h24.89c4.53,0,8.21,3.68,8.21,8.21h-42.01V19.44Z"/><path class="cls-1" d="M159.45,41.97c0-14.5,8.65-23.67,24.1-23.67s24.19,9.17,24.19,23.67v34.59h-8.91V41.97c0-9.61-5.24-15.46-15.28-15.46s-15.2,5.85-15.2,15.46v34.59h-8.91V41.97Z"/><path class="cls-1" d="M226.87,19.44h20.35c19.91,0,30.39,11.44,30.39,28.56s-10.48,28.56-30.39,28.56h-20.35V19.44Zm20.35,48.91c14.58,0,21.4-8.03,21.4-20.35s-6.81-20.35-21.4-20.35h-11.44v40.7h11.44Z"/><path class="cls-1" d="M295.34,19.44h0c4.92,0,8.91,3.99,8.91,8.91v48.21c-4.92,0-8.91-3.99-8.91-8.91V19.44Z"/><polygon class="cls-1" points="339.45 27.65 321.37 27.65 321.37 19.44 366.52 19.44 366.52 27.65 348.35 27.65 348.35 76.56 339.45 76.56 339.45 27.65"/><path class="cls-1" d="M392.54,19.44h0v48.21c0,4.92-3.99,8.91-8.91,8.91V28.35c0-4.92,3.99-8.91,8.91-8.91"/><path class="cls-1" d="M410.27,48c0-17.12,12.58-29.69,30.39-29.69s30.39,12.58,30.39,29.69-12.58,29.69-30.39,29.69-30.39-12.57-30.39-29.69m51.79,0c0-12.4-8.73-21.48-21.4-21.48s-21.4,9.08-21.4,21.48,8.73,21.48,21.4,21.48,21.4-9.08,21.4-21.48"/><path class="cls-1" d="M497.34,68.51c0,5.07-4.11,9.18-9.18,9.18s-9.18-4.11-9.18-9.18,4.11-9.18,9.18-9.18,9.18,4.11,9.18,9.18"/></svg>