<svg id="Layer_1" data-name="Layer 1" xmlns="http://www.w3.org/2000/svg" viewBox="0 0 500 861.81"><defs><style>.cls-1{fill:#fff;}</style></defs><path class="cls-1" d="M386.67,226.65a113.51,113.51,0,1,0-89.35-43.73L184.08,319.47a128.81,128.81,0,1,0-20.93,240.44l93.3,131.25a102,102,0,1,0,41.46-27.72L208.13,537.15a128.56,128.56,0,0,0,16-187.89l111.7-134.7A112.55,112.55,0,0,0,386.67,226.65Zm-2.21,533a52.31,52.31,0,1,1-52.31-52.3A52.36,52.36,0,0,1,384.46,759.66Zm2.21-709.82a63.49,63.49,0,1,1-63.48,63.49A63.12,63.12,0,0,1,386.67,49.84Zm-336.83,386a79,79,0,1,1,79,79A79,79,0,0,1,49.84,435.79Z"/></svg>