<svg id="Layer_1" data-name="Layer 1" xmlns="http://www.w3.org/2000/svg" viewBox="0 0 500 203.68"><defs><style>.cls-1{fill:#004e72;}</style></defs><path class="cls-1" d="M48.58.4V12.61h-17V57.07H16.81V12.61H0V.4Z"/><path class="cls-1" d="M73.47.4V23.52H96.35V.4h14.79V57.07H96.35V35.33H73.47V57.07H58.68V.4Z"/><path class="cls-1" d="M183.89,28.7c0,16.57-13.1,29-30.64,29s-30.64-12.45-30.64-29S135.71,0,153.25,0,183.89,12.29,183.89,28.7Zm-46.08.08c0,9.21,7.2,16.33,15.6,16.33S168.69,38,168.69,28.78s-6.79-16.17-15.28-16.17A15.79,15.79,0,0,0,137.81,28.78Z"/><path class="cls-1" d="M229.39,57.07l-8.25-15.68h-11V57.07H195.36V.4h25.46c15,0,23.61,7.28,23.61,19.89,0,8.57-3.56,14.87-10.11,18.27l11.8,18.51ZM210.15,29.59H220.9c6,0,9.46-3.08,9.46-8.81s-3.48-8.57-9.46-8.57H210.15Z"/><path class="cls-1" d="M271.09.45l25.69,34.1V.45h13.74V57.09H297.59L271.9,23.16V57.09H258.08V.45Z"/><path class="cls-1" d="M369.33.45v12.2h-17V57.09H337.58V12.65H320.77V.45Z"/><path class="cls-1" d="M458.69.4,484.4,34.52V.4h13.74V57.07H485.21L459.5,23.12v34H445.68V.4Z"/><path class="cls-1" d="M106.37,101.62h12.78v22.31a45.48,45.48,0,0,1-23.61,7.28c-17.3,0-30.31-12.45-30.31-28.94S78.57,73.49,96.51,73.49c8.49,0,17.46,3.23,23.28,8.4l-8.4,10.35a22.94,22.94,0,0,0-15-6.22c-9.13,0-16,7-16,16.25a15.9,15.9,0,0,0,16.17,16.32,23.09,23.09,0,0,0,9.78-2.66Z"/><path class="cls-1" d="M167.07,130.56l-8.24-15.68h-11v15.68H133V73.89h25.47c15,0,23.6,7.28,23.6,19.89,0,8.57-3.56,14.87-10.1,18.27l11.8,18.51Zm-19.23-27.49h10.75c6,0,9.45-3.07,9.45-8.81,0-5.57-3.47-8.57-9.45-8.57H147.84Z"/><path class="cls-1" d="M240.39,73.89v11.8H210.48V96.28h27V108l-27,.08v10.67h30.71v11.8H195.68V73.89Z"/><path class="cls-1" d="M291.94,101.62H304.7v22.3a45.37,45.37,0,0,1-23.59,7.27c-17.29,0-30.3-12.44-30.3-28.93S264.14,73.5,282.08,73.5c8.48,0,17.45,3.23,23.27,8.4L297,92.25A22.91,22.91,0,0,0,282,86c-9.13,0-16,7-16,16.24a15.89,15.89,0,0,0,16.16,16.32,23.13,23.13,0,0,0,9.78-2.66Z"/><path class="cls-1" d="M421.68,130.56l-8.25-15.68h-11v15.68h-14.8V73.89h25.47c15,0,23.6,7.28,23.6,19.89,0,8.57-3.55,14.87-10.1,18.27l11.8,18.51Zm-19.24-27.49h10.75c6,0,9.46-3.07,9.46-8.81,0-5.57-3.48-8.57-9.46-8.57H402.44Z"/><path class="cls-1" d="M479.55,112.45v18.11H464.76v-17.7l-20.86-39h14.79l13.42,24.33,13.1-24.33H500Z"/><path class="cls-1" d="M405.29,55.75a26.43,26.43,0,1,0-20.81-10.19l-26.37,31.8a30,30,0,1,0-4.88,56L375,163.93a23.78,23.78,0,1,0,17.63-7.83,23.42,23.42,0,0,0-8,1.38l-20.91-29.42a30,30,0,0,0,3.73-43.76l26-31.37A26.19,26.19,0,0,0,405.29,55.75Zm-.51,124.14a12.19,12.19,0,1,1-12.19-12.19A12.2,12.2,0,0,1,404.78,179.89Zm.51-165.33A14.62,14.62,0,0,1,411,15.72a14.79,14.79,0,1,1-5.75-1.16Zm-78.45,89.89a18.39,18.39,0,1,1,18.39,18.4A18.41,18.41,0,0,1,326.84,104.45Z"/></svg>