<svg id="Layer_1" data-name="Layer 1" xmlns="http://www.w3.org/2000/svg" viewBox="0 0 500 500"><defs><style>.cls-1{fill:#f66;}.cls-2{fill:#004e72;}</style></defs><path class="cls-1" d="M53.37,106.73A53.43,53.43,0,0,1,0,53.37H3.24A50.13,50.13,0,1,0,53.37,3.24V0a53.37,53.37,0,0,1,0,106.73Z"/><path class="cls-1" d="M184.46,106.71a53.35,53.35,0,0,1-37.74-91.08L149,17.92a50.13,50.13,0,1,0,70.89,0l2.29-2.29a53.35,53.35,0,0,1-37.73,91.08Z"/><path class="cls-1" d="M315.54,106.71a53.36,53.36,0,1,1,37.74-91.08L351,17.92a50.13,50.13,0,1,0,0,70.89l2.29,2.29A53.18,53.18,0,0,1,315.54,106.71Z"/><path class="cls-1" d="M446.63,106.73A53.37,53.37,0,1,1,500,53.37h-3.24a50.13,50.13,0,1,0-50.13,50.12Z"/><path class="cls-1" d="M53.37,368.91A53.43,53.43,0,0,1,0,315.54H3.24a50.13,50.13,0,1,0,50.13-50.12v-3.24a53.37,53.37,0,0,1,0,106.73Z"/><path class="cls-1" d="M315.54,368.91a53.37,53.37,0,1,1,37.74-91.1L351,280.1A50.13,50.13,0,1,0,351,351l2.29,2.29A53,53,0,0,1,315.54,368.91Z"/><path class="cls-1" d="M446.63,368.91A53.37,53.37,0,1,1,500,315.54h-3.24a50.13,50.13,0,1,0-50.13,50.13Z"/><path class="cls-1" d="M91.1,222.19l-2.29-2.29A50.13,50.13,0,1,0,17.92,149a50.13,50.13,0,0,0,0,70.89l-2.29,2.29A53.37,53.37,0,0,1,91.1,146.72a53.37,53.37,0,0,1,0,75.47Z"/><path class="cls-1" d="M446.63,237.82a53.42,53.42,0,0,1-53.36-53.36h3.24a50.13,50.13,0,1,0,50.12-50.13v-3.24a53.37,53.37,0,1,1,0,106.73Z"/><path class="cls-1" d="M184.46,237.82v-3.24a50.13,50.13,0,1,0-50.13-50.12h-3.24a53.37,53.37,0,1,1,53.37,53.36Z"/><path class="cls-1" d="M91.1,484.37l-2.29-2.29a50.13,50.13,0,1,0-70.89,0l-2.29,2.29a53.37,53.37,0,1,1,75.47,0Z"/><path class="cls-1" d="M446.63,500a53.43,53.43,0,0,1-53.36-53.37h3.24a50.13,50.13,0,1,0,50.12-50.12v-3.24a53.37,53.37,0,1,1,0,106.73Z"/><path class="cls-1" d="M184.46,500v-3.24a50.13,50.13,0,1,0-50.13-50.13h-3.24A53.37,53.37,0,1,1,184.46,500Z"/><path class="cls-2" d="M184.46,368.91a53.37,53.37,0,1,1,53.36-53.37A53.43,53.43,0,0,1,184.46,368.91Zm0-103.49a50.13,50.13,0,1,0,50.12,50.12A50.19,50.19,0,0,0,184.46,265.42Z"/><path class="cls-2" d="M315.54,230.5a46,46,0,1,1,46-46A46.1,46.1,0,0,1,315.54,230.5Zm0-88.84a42.8,42.8,0,1,0,42.8,42.8A42.85,42.85,0,0,0,315.54,141.66Z"/><path class="cls-2" d="M315.54,485.89a39.26,39.26,0,1,1,39.26-39.26A39.3,39.3,0,0,1,315.54,485.89Zm0-75.27a36,36,0,1,0,36,36A36.06,36.06,0,0,0,315.54,410.62Z"/><rect class="cls-2" x="206.27" y="244.91" width="90.27" height="3.24" transform="translate(-100.69 250) rotate(-45)"/><rect class="cls-2" x="251.65" y="339.78" width="3.24" height="96.12" transform="translate(-200.06 292.68) rotate(-45)"/></svg>