<svg id="Layer_1" data-name="Layer 1" xmlns="http://www.w3.org/2000/svg" viewBox="0 0 500 283.09"><defs><style>.cls-1{fill:#ffc200;}</style></defs><path class="cls-1" d="M172.42,30.83V74.15H112.17V231.94H59.67V74.15H0V30.83Z"/><path class="cls-1" d="M452.4,134.61h45.31v79.15c-21.51,14.91-55.63,25.8-83.73,25.8-61.36,0-107.53-44.16-107.53-102.65s47.31-102.08,111-102.08c30.11,0,61.94,11.47,82.58,29.82l-29.82,36.7c-14.34-13.47-34.7-22.08-53.05-22.08-32.4,0-56.77,25-56.77,57.64,0,33,24.66,57.92,57.35,57.92,10,0,22.65-3.44,34.69-9.46Z"/><path class="cls-1" d="M277.81,74.45a37.26,37.26,0,1,0-29.35-14.36l-37.2,44.85a42.31,42.31,0,1,0-6.87,79L235,227a33.43,33.43,0,1,0,13.61-9.11l-29.49-41.48a42.22,42.22,0,0,0,5.26-61.72l36.69-44.25A36.93,36.93,0,0,0,277.81,74.45Zm-.72,175.09a17.19,17.19,0,1,1-17.19-17.18A17.2,17.2,0,0,1,277.09,249.54Zm.72-233.17A20.86,20.86,0,1,1,257,37.23,20.67,20.67,0,0,1,277.81,16.37ZM167.17,143.15a25.94,25.94,0,1,1,25.94,25.94A26,26,0,0,1,167.17,143.15Z"/></svg>