<?xml version="1.0"?>
<svg xmlns="http://www.w3.org/2000/svg" xmlns:xlink="http://www.w3.org/1999/xlink" xmlns:svgjs="http://svgjs.com/svgjs" version="1.1" width="512" height="512" x="0" y="0" viewBox="0 0 484.383 484.383" style="enable-background:new 0 0 512 512" xml:space="preserve" class=""><g>
<g xmlns="http://www.w3.org/2000/svg">
	<path d="M256.069,264.533c-25.669-8.081-47.339-13.54-47.554-13.589l3.363-13.423c0.228,0.055,22.293,5.611,48.342,13.838   L256.069,264.533z" fill="#ffffff" data-original="#000000" class=""/>
	<path d="M282.915,408.211H6.919c-3.821,0-6.919-3.098-6.919-6.919v-92.091c0.009-13.36,7.421-25.615,19.248-31.827   c38.967-20.632,111.81-39.05,114.854-39.825l3.363,13.423c-0.733,0.18-74.288,18.785-111.775,38.635   c-7.277,3.83-11.839,11.371-11.852,19.594v85.172h269.077V408.211z" fill="#ffffff" data-original="#000000" class=""/>
	<path d="M173.042,262.616c-0.166,0-0.346,0-0.512,0c-27.362-1.869-52.484-15.786-68.58-37.992c-2.744-3.544-5.285-7.24-7.611-11.07   c-6.645-10.849-11.537-22.678-14.495-35.051c-0.218-1.084-0.901-2.017-1.868-2.553c-9.726-5.201-15.571-15.554-15-26.569   c-0.492-9.863,3.95-19.325,11.852-25.247c0.942-0.795,1.454-1.987,1.384-3.217v-8.358c0-1.155,0-2.311,0.055-3.459   C65.958,96.645,59.779,79.39,61.385,61.954c0.42-3.798,3.84-6.536,7.638-6.116c1.361,0.151,2.648,0.702,3.695,1.584l0,0   c2.125,1.193,4.609,1.578,6.995,1.086c4.961-0.816,13.035-4.885,23.338-19.65c15.962-22.992,56.576-44.094,89.254-37.604   c17.314,3.164,31.429,15.7,36.615,32.519c10.641-3.619,22.365-2.025,31.654,4.304c16.709,12.62,20.605,41.846,11.873,89.254   c5.37,6.136,8.416,13.961,8.607,22.113c0.567,11.041-5.308,21.412-15.069,26.603c-0.926,0.546-1.568,1.468-1.757,2.525   c-3.994,16.788-11.557,32.519-22.175,46.122c-16.069,22.186-41.166,36.085-68.497,37.936   C173.381,262.61,173.201,262.616,173.042,262.616z M92.091,118.011v2.941c0.096,5.914-2.791,11.479-7.68,14.806   c-3.897,3.427-5.962,8.483-5.577,13.658c-0.44,5.514,2.138,10.835,6.739,13.907c4.915,2.273,8.508,6.683,9.742,11.956   c3.546,14.864,10.231,28.797,19.608,40.863c13.633,18.89,34.892,30.821,58.119,32.616c23.228-1.766,44.493-13.687,58.119-32.581   c2.459-3.164,4.744-6.46,6.843-9.873c5.873-9.607,10.195-20.079,12.807-31.031c1.211-5.237,4.755-9.63,9.617-11.921   c4.651-3.052,7.266-8.397,6.822-13.942c-0.171-5.81-2.836-11.266-7.313-14.973c-1.64-1.07-2.755-2.78-3.072-4.712   c-2.314-14.521-12.01-26.795-25.6-32.408c-14.674-6.432-31.619-4.902-44.904,4.054c-9.241,6.187-19.137,11.334-29.509,15.346   c-13.363,5.417-27.788,7.701-42.171,6.677c-7.777-0.528-15.412-2.349-22.59-5.39V118.011z M75.382,72.415   c0.764,10.914,5.897,21.059,14.239,28.139c7.647,5.542,16.765,8.693,26.202,9.057c12.295,0.833,24.616-1.162,36.02-5.833   c9.412-3.643,18.394-8.311,26.783-13.921c17.192-11.595,39.123-13.582,58.119-5.265c10.183,4.315,18.897,11.489,25.088,20.653   c4.414-38.538-3.639-51.677-9.514-56.147c-9.797-7.472-24.756-0.194-24.908-0.125c-3.421,1.703-7.574,0.31-9.277-3.11   c-0.251-0.504-0.44-1.037-0.561-1.588c-1.946-14.829-13.22-26.717-27.925-29.447c-26.672-5.293-61.724,12.454-75.236,31.931   c-10.773,15.436-21.968,24.022-33.28,25.524c-1.912,0.263-3.849,0.305-5.77,0.125L75.382,72.415z" fill="#ffffff" data-original="#000000" class=""/>
	<rect x="76.164" y="322.561" transform="matrix(1 -0.0013 0.0013 1 -0.4675 0.1076)" width="13.838" height="78.876" fill="#ffffff" data-original="#000000" class=""/>
	<path d="M321.024,416.77c-52.951,0.011-95.884-42.906-95.895-95.856c-0.011-52.951,42.906-95.884,95.856-95.895   c25.449-0.005,49.856,10.108,67.844,28.112l0,0c37.44,37.422,37.455,98.109,0.034,135.549   C370.875,406.677,346.469,416.783,321.024,416.77z M321.024,238.912c-45.289,0.037-81.973,36.781-81.936,82.07   c0.037,45.289,36.781,81.973,82.07,81.936c45.289-0.037,81.973-36.781,81.936-82.07c-0.018-21.733-8.662-42.57-24.034-57.934l0,0   C363.677,247.513,342.792,238.875,321.024,238.912z" fill="#ffffff" data-original="#000000" class=""/>
	<path d="M321.024,388.582c-37.371,0.008-67.673-30.282-67.681-67.653c-0.008-37.371,30.282-67.673,67.653-67.681   c37.371-0.008,67.673,30.282,67.681,67.653c0.004,17.956-7.13,35.178-19.83,47.872C356.19,381.496,338.97,388.628,321.024,388.582z    M321.024,267.1c-29.721-0.007-53.821,24.082-53.827,53.803c-0.007,29.721,24.082,53.821,53.803,53.827   c29.721,0.007,53.821-24.082,53.827-53.803c0.003-14.271-5.662-27.958-15.749-38.052c-10.066-10.138-23.767-15.831-38.054-15.81   V267.1z" fill="#ffffff" data-original="#000000" class=""/>
	
		<rect x="387.212" y="379.633" transform="matrix(0.7072 -0.707 0.707 0.7072 -163.2035 394.0613)" width="13.838" height="28.852" fill="#ffffff" data-original="#000000" class=""/>
	<path d="M449.591,484.319c-9.235,0.024-18.096-3.646-24.611-10.192l-41.514-41.514c-4.738-4.755-4.738-12.446,0-17.2l32.014-32.014   c4.755-4.738,12.446-4.738,17.2,0l0,0l41.514,41.514c13.588,13.594,13.584,35.629-0.01,49.218   C467.661,480.652,458.815,484.317,449.591,484.319z M394.448,423.986l40.351,40.358c8.292,7.929,21.356,7.929,29.648,0   c8.187-8.182,8.191-21.451,0.009-29.638c-0.003-0.003-0.006-0.006-0.009-0.009l-40.386-40.323L394.448,423.986z" fill="#ffffff" data-original="#000000" class=""/>
</g>















</g></svg>
